<svg 
 xmlns="http://www.w3.org/2000/svg"
 xmlns:xlink="http://www.w3.org/1999/xlink"
 width="1936px" height="1084px">
<defs>
<linearGradient id="PSgrad_0" x1="0%" x2="45.399%" y1="0%" y2="89.101%">
  <stop offset="0%" stop-color="rgb(246,245,254)" stop-opacity="1" />
  <stop offset="55%" stop-color="rgb(255,255,255)" stop-opacity="1" />
</linearGradient>

</defs>
<path fill-rule="evenodd"  fill="rgb(131, 121, 254)"
 d="M0.000,22.324 C0.000,22.324 264.116,-57.274 312.938,91.032 C361.759,239.337 466.035,277.324 640.374,263.272 C814.712,249.219 910.878,233.500 1128.508,356.451 C1305.448,456.413 1588.410,368.752 1588.410,368.752 C1588.410,368.752 1949.133,246.747 1935.620,579.515 C1928.201,762.224 1935.620,1084.000 1935.620,1084.000 L6.041,1084.000 L0.000,22.324 Z"/>
<path fill="url(#PSgrad_0)"
 d="M0.000,22.324 C0.000,22.324 264.116,-57.274 312.938,91.032 C361.759,239.337 466.035,277.324 640.374,263.272 C814.712,249.219 910.878,233.500 1128.508,356.451 C1305.448,456.413 1588.410,368.752 1588.410,368.752 C1588.410,368.752 1949.133,246.747 1935.620,579.515 C1928.201,762.224 1935.620,1084.000 1935.620,1084.000 L6.041,1084.000 L0.000,22.324 Z"/>
</svg>