<svg 
 xmlns="http://www.w3.org/2000/svg"
 xmlns:xlink="http://www.w3.org/1999/xlink"
 width="1936px" height="1115px">
<defs>
<linearGradient id="PSgrad_0" x1="0%" x2="45.399%" y1="0%" y2="89.101%">
  <stop offset="0%" stop-color="rgb(246,245,254)" stop-opacity="1" />
  <stop offset="55%" stop-color="rgb(255,255,255)" stop-opacity="1" />
</linearGradient>

</defs>
<path fill-rule="evenodd"  fill="rgb(131, 121, 254)"
 d="M1936.000,21.954 C1936.000,21.954 1671.884,-59.996 1623.062,92.692 C1574.241,245.380 1469.964,284.488 1295.626,270.021 C1121.288,255.554 1025.121,239.370 807.492,365.953 C630.552,468.870 347.590,378.618 347.590,378.618 C347.590,378.618 -13.133,253.008 0.379,595.609 C7.798,783.716 0.379,1114.999 0.379,1114.999 L1929.959,1114.999 L1936.000,21.954 Z"/>
<path fill="url(#PSgrad_0)"
 d="M1936.000,21.954 C1936.000,21.954 1671.884,-59.996 1623.062,92.692 C1574.241,245.380 1469.964,284.488 1295.626,270.021 C1121.288,255.554 1025.121,239.370 807.492,365.953 C630.552,468.870 347.590,378.618 347.590,378.618 C347.590,378.618 -13.133,253.008 0.379,595.609 C7.798,783.716 0.379,1114.999 0.379,1114.999 L1929.959,1114.999 L1936.000,21.954 Z"/>
</svg>